<mxfile host="Electron" modified="2023-12-09T21:58:56.067Z" agent="Mozilla/5.0 (Windows NT 10.0; Win64; x64) AppleWebKit/537.36 (KHTML, like Gecko) draw.io/22.1.2 Chrome/114.0.5735.289 Electron/25.9.4 Safari/537.36" etag="a-IuTH-XbvxOpgAEo61Q" version="22.1.2" type="device">
  <diagram name="Page-1" id="N5HZclOpTGmObDrAwqo8">
    <mxGraphModel dx="860" dy="583" grid="1" gridSize="10" guides="1" tooltips="1" connect="1" arrows="1" fold="1" page="1" pageScale="1" pageWidth="850" pageHeight="1100" math="0" shadow="0">
      <root>
        <mxCell id="0" />
        <mxCell id="1" parent="0" />
        <mxCell id="efUJk-JDwhjo9ZufJi0z-22" style="edgeStyle=orthogonalEdgeStyle;rounded=0;orthogonalLoop=1;jettySize=auto;html=1;entryX=0.5;entryY=0;entryDx=0;entryDy=0;" edge="1" parent="1" source="efUJk-JDwhjo9ZufJi0z-2" target="efUJk-JDwhjo9ZufJi0z-21">
          <mxGeometry relative="1" as="geometry" />
        </mxCell>
        <mxCell id="efUJk-JDwhjo9ZufJi0z-2" value="TURTLE&lt;br&gt;REQUESTS&lt;br&gt;JOB" style="rounded=0;whiteSpace=wrap;html=1;fillColor=#223815;" vertex="1" parent="1">
          <mxGeometry x="190" y="15" width="120" height="60" as="geometry" />
        </mxCell>
        <mxCell id="efUJk-JDwhjo9ZufJi0z-33" style="edgeStyle=orthogonalEdgeStyle;rounded=0;orthogonalLoop=1;jettySize=auto;html=1;entryX=0.5;entryY=0;entryDx=0;entryDy=0;" edge="1" parent="1" source="efUJk-JDwhjo9ZufJi0z-3" target="efUJk-JDwhjo9ZufJi0z-14">
          <mxGeometry relative="1" as="geometry" />
        </mxCell>
        <mxCell id="efUJk-JDwhjo9ZufJi0z-3" value="TURTLE&lt;br&gt;INTIALIZATION" style="rounded=0;whiteSpace=wrap;html=1;fillColor=#223815;" vertex="1" parent="1">
          <mxGeometry x="20" y="15" width="120" height="60" as="geometry" />
        </mxCell>
        <mxCell id="efUJk-JDwhjo9ZufJi0z-13" style="edgeStyle=orthogonalEdgeStyle;rounded=0;orthogonalLoop=1;jettySize=auto;html=1;entryX=0.5;entryY=0;entryDx=0;entryDy=0;" edge="1" parent="1" source="efUJk-JDwhjo9ZufJi0z-4" target="efUJk-JDwhjo9ZufJi0z-10">
          <mxGeometry relative="1" as="geometry" />
        </mxCell>
        <mxCell id="efUJk-JDwhjo9ZufJi0z-4" value="BEHAVIOR&lt;br&gt;TREE&lt;br&gt;UPDATE" style="rounded=1;whiteSpace=wrap;html=1;fillColor=#4F084F;" vertex="1" parent="1">
          <mxGeometry x="560" y="40" width="120" height="60" as="geometry" />
        </mxCell>
        <mxCell id="efUJk-JDwhjo9ZufJi0z-11" style="edgeStyle=orthogonalEdgeStyle;rounded=0;orthogonalLoop=1;jettySize=auto;html=1;entryX=0.5;entryY=0;entryDx=0;entryDy=0;" edge="1" parent="1" source="efUJk-JDwhjo9ZufJi0z-8" target="efUJk-JDwhjo9ZufJi0z-9">
          <mxGeometry relative="1" as="geometry" />
        </mxCell>
        <mxCell id="efUJk-JDwhjo9ZufJi0z-8" value="IF NOT UPDATING" style="rounded=1;whiteSpace=wrap;html=1;" vertex="1" parent="1">
          <mxGeometry x="560" y="200" width="120" height="60" as="geometry" />
        </mxCell>
        <mxCell id="efUJk-JDwhjo9ZufJi0z-9" value="UPDATE&lt;br&gt;" style="rounded=1;whiteSpace=wrap;html=1;" vertex="1" parent="1">
          <mxGeometry x="560" y="280" width="120" height="60" as="geometry" />
        </mxCell>
        <mxCell id="efUJk-JDwhjo9ZufJi0z-12" style="edgeStyle=orthogonalEdgeStyle;rounded=0;orthogonalLoop=1;jettySize=auto;html=1;entryX=0.5;entryY=0;entryDx=0;entryDy=0;" edge="1" parent="1" source="efUJk-JDwhjo9ZufJi0z-10" target="efUJk-JDwhjo9ZufJi0z-8">
          <mxGeometry relative="1" as="geometry" />
        </mxCell>
        <mxCell id="efUJk-JDwhjo9ZufJi0z-10" value="FOR EACH SEQUENCER" style="rounded=1;whiteSpace=wrap;html=1;" vertex="1" parent="1">
          <mxGeometry x="560" y="120" width="120" height="60" as="geometry" />
        </mxCell>
        <mxCell id="efUJk-JDwhjo9ZufJi0z-35" style="edgeStyle=orthogonalEdgeStyle;rounded=0;orthogonalLoop=1;jettySize=auto;html=1;entryX=0.5;entryY=0;entryDx=0;entryDy=0;" edge="1" parent="1" source="efUJk-JDwhjo9ZufJi0z-14" target="efUJk-JDwhjo9ZufJi0z-34">
          <mxGeometry relative="1" as="geometry" />
        </mxCell>
        <mxCell id="efUJk-JDwhjo9ZufJi0z-14" value="CREATE&lt;br&gt;NEW&lt;br&gt;TURTLE" style="rounded=1;whiteSpace=wrap;html=1;fillColor=#18141D;" vertex="1" parent="1">
          <mxGeometry x="20" y="110" width="120" height="60" as="geometry" />
        </mxCell>
        <mxCell id="efUJk-JDwhjo9ZufJi0z-24" style="edgeStyle=orthogonalEdgeStyle;rounded=0;orthogonalLoop=1;jettySize=auto;html=1;entryX=0;entryY=0.5;entryDx=0;entryDy=0;" edge="1" parent="1" source="efUJk-JDwhjo9ZufJi0z-21" target="efUJk-JDwhjo9ZufJi0z-23">
          <mxGeometry relative="1" as="geometry" />
        </mxCell>
        <mxCell id="efUJk-JDwhjo9ZufJi0z-30" style="edgeStyle=orthogonalEdgeStyle;rounded=0;orthogonalLoop=1;jettySize=auto;html=1;entryX=0.5;entryY=0;entryDx=0;entryDy=0;" edge="1" parent="1" source="efUJk-JDwhjo9ZufJi0z-21" target="efUJk-JDwhjo9ZufJi0z-29">
          <mxGeometry relative="1" as="geometry" />
        </mxCell>
        <mxCell id="efUJk-JDwhjo9ZufJi0z-21" value="DOES&lt;br style=&quot;font-size: 9px;&quot;&gt;TURTLE&lt;br style=&quot;font-size: 9px;&quot;&gt;EXIST?" style="rhombus;whiteSpace=wrap;html=1;fontSize=9;fillColor=#595921;" vertex="1" parent="1">
          <mxGeometry x="210" y="100" width="80" height="80" as="geometry" />
        </mxCell>
        <mxCell id="efUJk-JDwhjo9ZufJi0z-23" value="RETURN&lt;br&gt;ERROR" style="rounded=1;whiteSpace=wrap;html=1;fillColor=#40211A;" vertex="1" parent="1">
          <mxGeometry x="330" y="110" width="120" height="60" as="geometry" />
        </mxCell>
        <mxCell id="efUJk-JDwhjo9ZufJi0z-32" style="edgeStyle=orthogonalEdgeStyle;rounded=0;orthogonalLoop=1;jettySize=auto;html=1;entryX=0;entryY=0.5;entryDx=0;entryDy=0;" edge="1" parent="1" source="efUJk-JDwhjo9ZufJi0z-29" target="efUJk-JDwhjo9ZufJi0z-31">
          <mxGeometry relative="1" as="geometry" />
        </mxCell>
        <mxCell id="efUJk-JDwhjo9ZufJi0z-42" style="edgeStyle=orthogonalEdgeStyle;rounded=0;orthogonalLoop=1;jettySize=auto;html=1;entryX=0.5;entryY=0;entryDx=0;entryDy=0;" edge="1" parent="1" source="efUJk-JDwhjo9ZufJi0z-29" target="efUJk-JDwhjo9ZufJi0z-40">
          <mxGeometry relative="1" as="geometry" />
        </mxCell>
        <mxCell id="efUJk-JDwhjo9ZufJi0z-29" value="IS A&lt;br&gt;NEW JOB&lt;br&gt;CACHED?" style="rhombus;whiteSpace=wrap;html=1;fontSize=9;fillColor=#595921;" vertex="1" parent="1">
          <mxGeometry x="210" y="220" width="80" height="80" as="geometry" />
        </mxCell>
        <mxCell id="efUJk-JDwhjo9ZufJi0z-31" value="RETURN&lt;br&gt;NO JOBS" style="rounded=1;whiteSpace=wrap;html=1;fillColor=#40211A;" vertex="1" parent="1">
          <mxGeometry x="330" y="230" width="120" height="60" as="geometry" />
        </mxCell>
        <mxCell id="efUJk-JDwhjo9ZufJi0z-34" value="RETURN&lt;br&gt;TURTLE&lt;br&gt;UNIQUE ID" style="rounded=1;whiteSpace=wrap;html=1;fillColor=#40211A;" vertex="1" parent="1">
          <mxGeometry x="20" y="200" width="120" height="60" as="geometry" />
        </mxCell>
        <mxCell id="efUJk-JDwhjo9ZufJi0z-36" value="NO" style="text;html=1;strokeColor=none;fillColor=none;align=center;verticalAlign=middle;whiteSpace=wrap;rounded=0;" vertex="1" parent="1">
          <mxGeometry x="288" y="120" width="40" height="20" as="geometry" />
        </mxCell>
        <mxCell id="efUJk-JDwhjo9ZufJi0z-37" value="NO" style="text;html=1;strokeColor=none;fillColor=none;align=center;verticalAlign=middle;whiteSpace=wrap;rounded=0;" vertex="1" parent="1">
          <mxGeometry x="288" y="237" width="40" height="20" as="geometry" />
        </mxCell>
        <mxCell id="efUJk-JDwhjo9ZufJi0z-39" value="RETURN ACTIVE &lt;br&gt;JOB AND NEW TRACKER ID" style="rounded=1;whiteSpace=wrap;html=1;fillColor=#40211A;" vertex="1" parent="1">
          <mxGeometry x="190" y="430" width="120" height="60" as="geometry" />
        </mxCell>
        <mxCell id="efUJk-JDwhjo9ZufJi0z-41" style="edgeStyle=orthogonalEdgeStyle;rounded=0;orthogonalLoop=1;jettySize=auto;html=1;entryX=0.5;entryY=0;entryDx=0;entryDy=0;" edge="1" parent="1" source="efUJk-JDwhjo9ZufJi0z-40" target="efUJk-JDwhjo9ZufJi0z-39">
          <mxGeometry relative="1" as="geometry" />
        </mxCell>
        <mxCell id="efUJk-JDwhjo9ZufJi0z-40" value="SET FIRST JOB&lt;br&gt;IN QUEUE&lt;br&gt;AS ACTIVE JOB" style="rounded=1;whiteSpace=wrap;html=1;fillColor=#18141D;" vertex="1" parent="1">
          <mxGeometry x="190" y="340" width="120" height="60" as="geometry" />
        </mxCell>
        <mxCell id="efUJk-JDwhjo9ZufJi0z-43" value="YES" style="text;html=1;strokeColor=none;fillColor=none;align=center;verticalAlign=middle;whiteSpace=wrap;rounded=0;" vertex="1" parent="1">
          <mxGeometry x="250" y="190" width="40" height="20" as="geometry" />
        </mxCell>
        <mxCell id="efUJk-JDwhjo9ZufJi0z-44" value="YES" style="text;html=1;strokeColor=none;fillColor=none;align=center;verticalAlign=middle;whiteSpace=wrap;rounded=0;" vertex="1" parent="1">
          <mxGeometry x="250" y="320" width="40" height="20" as="geometry" />
        </mxCell>
      </root>
    </mxGraphModel>
  </diagram>
</mxfile>
